<svg version="1.1" xmlns="http://www.w3.org/2000/svg" xmlns:xlink="http://www.w3.org/1999/xlink" width="603.000000pt" height="58.000000pt" viewBox="0,0,256,24.61458"><g fill="#1044bc" fill-rule="nonzero" stroke="none" stroke-width="1" stroke-linecap="butt" stroke-linejoin="miter" stroke-miterlimit="10" stroke-dasharray="" stroke-dashoffset="0" font-family="none" font-weight="none" font-size="none" text-anchor="none" style="mix-blend-mode: normal"><g transform="translate(-0.01106,0.20604) scale(0.42454,0.42454)"><g transform="translate(0,58) scale(0.1,-0.1)"><path d="M4303,570c-91,-19 -177,-88 -204,-166c-8,-22 -14,-73 -14,-115c1,-187 131,-292 341,-276c88,7 153,36 202,93c47,53 62,100 62,195c-1,148 -73,237 -218,268c-60,12 -108,13 -169,1zM4428,434c13,-9 28,-28 33,-42c16,-42 12,-177 -6,-212c-26,-51 -99,-53 -132,-3c-23,34 -25,172 -4,221c21,50 68,65 109,36z"></path><path d="M184,554c-60,-21 -119,-76 -149,-139c-24,-48 -27,-64 -23,-127c4,-84 26,-135 76,-186c51,-50 114,-75 192,-76c112,-2 141,19 420,299l245,245h-130h-129l-182,-180c-175,-174 -183,-180 -222,-180c-33,0 -45,6 -66,31c-42,50 -32,105 25,135c36,18 74,12 104,-17c21,-19 21,-18 85,47l65,65l-38,34c-70,61 -182,81 -273,49z"></path><path d="M1040,553c-37,-13 -91,-61 -305,-274l-260,-259h130h130l182,182c178,178 184,183 224,183c87,0 121,-108 50,-162c-26,-20 -84,-16 -110,8l-23,22l-67,-67l-66,-67l30,-25c111,-94 278,-91 377,8c50,51 72,102 76,186c4,63 1,79 -23,127c-62,128 -207,186 -345,138z"></path><path d="M1588,564c-5,-4 -8,-128 -8,-276v-268h105h105v95v95h43c59,0 74,-19 88,-113l11,-77h110c99,0 109,2 104,18c-3,9 -12,48 -20,85c-21,89 -39,122 -76,139c-16,7 -30,15 -30,18c0,3 17,13 38,22c49,23 72,63 72,126c0,35 -6,57 -22,77c-41,52 -74,59 -303,63c-115,2 -213,0 -217,-4zM1904,431c21,-17 20,-65 0,-85c-10,-11 -34,-16 -70,-16h-54v61v61l54,-4c30,-3 62,-10 70,-17z"></path><path d="M2365,558c-27,-73 -185,-530 -185,-534c0,-2 47,-4 104,-4h103l17,60l17,60h84h83l19,-57l20,-58l106,-3c61,-1 107,1 107,7c0,5 -42,127 -94,272l-94,264l-141,3c-108,2 -143,0 -146,-10zM2535,360c14,-40 25,-79 25,-87c0,-9 -16,-13 -55,-13c-30,0 -55,3 -55,7c0,16 52,175 56,171c2,-3 15,-38 29,-78z"></path><path d="M2880,500v-69l130,-3l129,-3l-134,-119l-135,-120v-83v-83h255h255v70v69l-137,3l-137,3l132,119l132,119v83v84h-245h-245z"></path><path d="M3450,295v-275h178c201,0 260,11 316,61c56,49 80,110 80,209c1,111 -32,187 -101,230c-64,41 -122,50 -308,50h-165zM3747,434c68,-19 86,-202 24,-258c-9,-9 -39,-19 -64,-22l-47,-7v147v146h33c17,0 42,-3 54,-6z"></path><path d="M4740,295v-275h235h235v80v80h-130h-130v195v195h-105h-105z"></path><path d="M5270,295v-275h105h105v275v275h-105h-105z"></path><path d="M5540,295v-275h240h240v65v65h-135h-135v45v45h130h130v60v60h-130h-130v40v40h135h135v65v65h-240h-240z"></path></g></g></g></svg>